<svg width="48" height="48" viewBox="0 0 58 58" fill="none" xmlns="http://www.w3.org/2000/svg"><g clip-path="url(#prefix__clip0_213_5153)"><path d="M38.045 0h-18.09C12.97 0 9.478 0 6.81 1.36a12.472 12.472 0 00-5.45 5.45C0 9.478 0 12.97 0 19.955v18.09C0 45.03 0 48.522 1.36 51.19a12.471 12.471 0 005.45 5.45C9.478 58 12.97 58 19.955 58h18.09c6.985 0 10.477 0 13.145-1.36a12.47 12.47 0 005.45-5.45C58 48.522 58 45.03 58 38.045v-18.09c0-6.985 0-10.477-1.36-13.145a12.471 12.471 0 00-5.45-5.45C48.522 0 45.03 0 38.045 0z" fill="#D9E4F2"/><path d="M38.045 0h-18.09C12.97 0 9.478 0 6.81 1.36a12.472 12.472 0 00-5.45 5.45C0 9.478 0 12.97 0 19.955v18.09C0 45.03 0 48.522 1.36 51.19a12.471 12.471 0 005.45 5.45C9.478 58 12.97 58 19.955 58h18.09c6.985 0 10.477 0 13.145-1.36a12.47 12.47 0 005.45-5.45C58 48.522 58 45.03 58 38.045v-18.09c0-6.985 0-10.477-1.36-13.145a12.471 12.471 0 00-5.45-5.45C48.522 0 45.03 0 38.045 0z" fill="url(#prefix__paint0_linear_213_5153)"/><g filter="url(#prefix__filter0_ddi_213_5153)" fill="#F1F1F1"><path d="M39.318 26.46H25.003c-9.38 0-12.642 2.282-12.642 8.231v9.047h6.321v-11.94h14.315c9.38 0 12.642-2.078 12.642-8.027v-8.558h-6.321V26.46z"/><path d="M19.016 15.213h-6.655v10.46h6.655v-10.46zM45.64 33.279h-6.656v10.459h6.655v-10.46z"/></g></g><defs><linearGradient id="prefix__paint0_linear_213_5153" x1=".022" y1="57.978" x2="54.827" y2="3.173" gradientUnits="userSpaceOnUse"><stop offset=".062" stop-color="#004BE0"/><stop offset=".314" stop-color="#004BE0" stop-opacity=".95"/><stop offset=".532" stop-color="#0083E6" stop-opacity=".938"/><stop offset=".778" stop-color="#00BBE2" stop-opacity=".6"/><stop offset="1" stop-color="#50D3F2" stop-opacity=".4"/></linearGradient><clipPath id="prefix__clip0_213_5153"><path fill="#fff" d="M0 0h58v58H0z"/></clipPath><filter id="prefix__filter0_ddi_213_5153" x="9.589" y="13.273" width="38.822" height="34.068" filterUnits="userSpaceOnUse" color-interpolation-filters="sRGB"><feFlood flood-opacity="0" result="BackgroundImageFix"/><feColorMatrix in="SourceAlpha" values="0 0 0 0 0 0 0 0 0 0 0 0 0 0 0 0 0 0 127 0" result="hardAlpha"/><feOffset dy="-.085"/><feGaussianBlur stdDeviation=".043"/><feComposite in2="hardAlpha" operator="out"/><feColorMatrix values="0 0 0 0 1 0 0 0 0 1 0 0 0 0 1 0 0 0 0.6 0"/><feBlend mode="soft-light" in2="BackgroundImageFix" result="effect1_dropShadow_213_5153"/><feColorMatrix in="SourceAlpha" values="0 0 0 0 0 0 0 0 0 0 0 0 0 0 0 0 0 0 127 0" result="hardAlpha"/><feOffset dy=".831"/><feGaussianBlur stdDeviation="1.386"/><feComposite in2="hardAlpha" operator="out"/><feColorMatrix values="0 0 0 0 0 0 0 0 0 0 0 0 0 0 0 0 0 0 0.25 0"/><feBlend mode="overlay" in2="effect1_dropShadow_213_5153" result="effect2_dropShadow_213_5153"/><feBlend in="SourceGraphic" in2="effect2_dropShadow_213_5153" result="shape"/><feColorMatrix in="SourceAlpha" values="0 0 0 0 0 0 0 0 0 0 0 0 0 0 0 0 0 0 127 0" result="hardAlpha"/><feOffset dy=".139"/><feGaussianBlur stdDeviation=".069"/><feComposite in2="hardAlpha" operator="arithmetic" k2="-1" k3="1"/><feColorMatrix values="0 0 0 0 1 0 0 0 0 1 0 0 0 0 1 0 0 0 1 0"/><feBlend in2="shape" result="effect3_innerShadow_213_5153"/></filter></defs></svg>